<?xml version="1.0" encoding="UTF-8" standalone="no"?>
<!-- Created with Inkscape (http://www.inkscape.org/) -->

<svg
   xmlns:dc="http://purl.org/dc/elements/1.1/"
   xmlns:cc="http://creativecommons.org/ns#"
   xmlns:rdf="http://www.w3.org/1999/02/22-rdf-syntax-ns#"
   xmlns:svg="http://www.w3.org/2000/svg"
   xmlns="http://www.w3.org/2000/svg"
   xmlns:sodipodi="http://sodipodi.sourceforge.net/DTD/sodipodi-0.dtd"
   xmlns:inkscape="http://www.inkscape.org/namespaces/inkscape"
   width="146.86844mm"
   height="24.271112mm"
   viewBox="0 0 520.39998 86.000005"
   id="svg2"
   version="1.1"
   inkscape:version="0.91 r13725"
   sodipodi:docname="bb_logo_inverted.svg">
  <defs
     id="defs4" />
  <sodipodi:namedview
     id="base"
     pagecolor="#ffffff"
     bordercolor="#666666"
     borderopacity="1.0"
     inkscape:pageopacity="0.0"
     inkscape:pageshadow="2"
     inkscape:zoom="0.7"
     inkscape:cx="-247.67248"
     inkscape:cy="-144.40664"
     inkscape:document-units="px"
     inkscape:current-layer="layer1"
     showgrid="false"
     fit-margin-top="0"
     fit-margin-left="0"
     fit-margin-right="0"
     fit-margin-bottom="0"
     inkscape:window-width="1536"
     inkscape:window-height="841"
     inkscape:window-x="-8"
     inkscape:window-y="-8"
     inkscape:window-maximized="1">
    <sodipodi:guide
       position="-7.1428374,107.14284"
       orientation="0,520.39998"
       id="guide3579" />
    <sodipodi:guide
       position="513.2571,107.14284"
       orientation="-85.999998,0"
       id="guide3581" />
    <sodipodi:guide
       position="513.2571,193.14283"
       orientation="0,-520.39998"
       id="guide3583" />
    <sodipodi:guide
       position="-7.1428374,193.14283"
       orientation="85.999998,0"
       id="guide3585" />
  </sodipodi:namedview>
  <metadata
     id="metadata7">
    <rdf:RDF>
      <cc:Work
         rdf:about="">
        <dc:format>image/svg+xml</dc:format>
        <dc:type
           rdf:resource="http://purl.org/dc/dcmitype/StillImage" />
        <dc:title />
      </cc:Work>
    </rdf:RDF>
  </metadata>
  <g
     inkscape:label="Layer 1"
     inkscape:groupmode="layer"
     id="layer1"
     transform="translate(-64.085694,-336.50504)">
    <rect
       style="opacity:1;fill:#005d99;fill-opacity:1;stroke:none;stroke-width:38.97637939;stroke-linecap:square;stroke-miterlimit:4;stroke-dasharray:none;stroke-dashoffset:0;stroke-opacity:1"
       id="rect3587"
       width="520.39996"
       height="86"
       x="64.085716"
       y="336.50504" />
    <g
       transform="matrix(2.9326165,0,0,2.9326165,-52.728049,366.48201)"
       style="font-style:normal;font-weight:normal;font-size:40px;line-height:125%;font-family:sans-serif;letter-spacing:0px;word-spacing:0px;fill:#ffffff;fill-opacity:1;stroke:none;stroke-width:1px;stroke-linecap:butt;stroke-linejoin:miter;stroke-opacity:1"
       id="flowRoot4139">
      <path
         d="m 92.892266,-6.5992448 c 0,-1.64 -1.32,-2.96 -2.96,-2.96 l -7.2,0 c -1.6,0 -2.96,1.32 -2.96,2.96 l 0,5.68000001 4.84,1.12 0,-4.96000001 3.48,0 0,6.76 -3.32,0 0,4.8 3.32,0 0,6.7999998 -3.48,0 0,-4.9999998 -4.84,1.12 0,5.7599998 c 0,1.6 1.36,2.96 2.96,2.96 l 7.2,0 c 1.64,0 2.96,-1.36 2.96,-2.96 l 0.04,-9.1599998 c 0,-1.04 -0.48,-1.76 -1.08,-2.4 0.68,-0.56 1.08,-1.36 1.08,-2.28 l -0.04,-8.24 z"
         style="font-style:normal;font-variant:normal;font-weight:normal;font-stretch:normal;font-family:'Sullivan Fill';-inkscape-font-specification:'Sullivan Fill';fill:#ffffff"
         id="path4143" />
      <path
         d="m 95.787891,-9.5592448 0,27.9999998 10.159999,0 c 1.6,0 2.96,-1.36 2.96,-2.96 l 0,-22.0799998 c 0,-1.64 -1.36,-2.96 -2.96,-2.96 l -10.159999,0 z m 8.279999,23.1599998 -3.48,0 0,-18.3599998 3.48,0 0,18.3599998 z"
         style="font-style:normal;font-variant:normal;font-weight:normal;font-stretch:normal;font-family:'Sullivan Fill';-inkscape-font-specification:'Sullivan Fill';fill:#ffffff"
         id="path4145" />
      <path
         d="m 132.07852,18.440755 -2,-11.9199998 c 1.04,-0.48 1.68,-1.52 1.68,-2.64 l 0,-10.48 c 0,-1.64 -1.32,-2.96 -2.92,-2.96 l -10.16,0 0,27.9999998 4.8,0 0,-11.6399998 1.84,0 1.96,11.6399998 4.8,0 z m -5.12,-16.4399998 -3.48,0 0,-6.76 3.48,0 0,6.76 z"
         style="font-style:normal;font-variant:normal;font-weight:normal;font-stretch:normal;font-family:'Sullivan Fill';-inkscape-font-specification:'Sullivan Fill';fill:#ffffff"
         id="path4147" />
      <path
         d="m 139.10352,13.640755 0,-3.48 6.64,0 0,-4.8399998 -6.64,0 0,-3.44 8.32,0 0,-4.8 -13.12,0 0,21.3599998 13.12,0 0,-4.8 -8.32,0 z"
         style="font-style:normal;font-variant:normal;font-weight:normal;font-stretch:normal;font-family:'Sullivan Fill';-inkscape-font-specification:'Sullivan Fill';fill:#ffffff"
         id="path4149" />
      <path
         d="m 162.26727,0.04075521 c 0,-1.64000001 -1.32,-2.96000001 -2.96,-2.96000001 l -10.16,0 0,21.3599998 4.8,0 0,-8.32 5.36,0 c 1.64,0 2.96,-1.3199998 2.96,-2.9599998 l 0,-7.11999999 z m -4.84,5.27999999 -3.48,0 0,-3.44 3.48,0 0,3.44 z"
         style="font-style:normal;font-variant:normal;font-weight:normal;font-stretch:normal;font-family:'Sullivan Fill';-inkscape-font-specification:'Sullivan Fill';fill:#ffffff"
         id="path4151" />
      <path
         d="m 167.18539,-2.9192448 c -1.64,0 -2.96,1.32 -2.96,2.96000001 l 0,15.43999979 c 0,1.6 1.32,2.96 2.96,2.96 l 7.2,0 c 1.64,0 2.96,-1.36 2.96,-2.96 l 0,-15.43999979 c 0,-1.64000001 -1.32,-2.96000001 -2.96,-2.96000001 l -7.2,0 z m 5.32,16.5199998 -3.48,0 0,-11.7199998 3.48,0 0,11.7199998 z"
         style="font-style:normal;font-variant:normal;font-weight:normal;font-stretch:normal;font-family:'Sullivan Fill';-inkscape-font-specification:'Sullivan Fill';fill:#ffffff"
         id="path4153" />
    </g>
  </g>
</svg>
