<?xml version="1.0" encoding="UTF-8" standalone="no"?>
<!-- Created with Inkscape (http://www.inkscape.org/) -->

<svg
   xmlns:dc="http://purl.org/dc/elements/1.1/"
   xmlns:cc="http://creativecommons.org/ns#"
   xmlns:rdf="http://www.w3.org/1999/02/22-rdf-syntax-ns#"
   xmlns:svg="http://www.w3.org/2000/svg"
   xmlns="http://www.w3.org/2000/svg"
   xmlns:sodipodi="http://sodipodi.sourceforge.net/DTD/sodipodi-0.dtd"
   xmlns:inkscape="http://www.inkscape.org/namespaces/inkscape"
   width="146.86844mm"
   height="24.271112mm"
   viewBox="0 0 520.39998 86.000005"
   id="svg2"
   version="1.1"
   inkscape:version="0.91 r13725"
   sodipodi:docname="bb_logo_inverted.svg">
  <defs
     id="defs4" />
  <sodipodi:namedview
     id="base"
     pagecolor="#ffffff"
     bordercolor="#666666"
     borderopacity="1.0"
     inkscape:pageopacity="0.0"
     inkscape:pageshadow="2"
     inkscape:zoom="0.7"
     inkscape:cx="173.75609"
     inkscape:cy="-144.40664"
     inkscape:document-units="px"
     inkscape:current-layer="layer1"
     showgrid="false"
     fit-margin-top="0"
     fit-margin-left="0"
     fit-margin-right="0"
     fit-margin-bottom="0"
     inkscape:window-width="1080"
     inkscape:window-height="1857"
     inkscape:window-x="-8"
     inkscape:window-y="-8"
     inkscape:window-maximized="1">
    <sodipodi:guide
       position="-7.1428374,107.14284"
       orientation="0,520.39998"
       id="guide3579" />
    <sodipodi:guide
       position="513.2571,107.14284"
       orientation="-85.999998,0"
       id="guide3581" />
    <sodipodi:guide
       position="513.2571,193.14283"
       orientation="0,-520.39998"
       id="guide3583" />
    <sodipodi:guide
       position="-7.1428374,193.14283"
       orientation="85.999998,0"
       id="guide3585" />
  </sodipodi:namedview>
  <metadata
     id="metadata7">
    <rdf:RDF>
      <cc:Work
         rdf:about="">
        <dc:format>image/svg+xml</dc:format>
        <dc:type
           rdf:resource="http://purl.org/dc/dcmitype/StillImage" />
        <dc:title></dc:title>
      </cc:Work>
    </rdf:RDF>
  </metadata>
  <g
     inkscape:label="Layer 1"
     inkscape:groupmode="layer"
     id="layer1"
     transform="translate(-64.085694,-336.50504)">
    <rect
       style="opacity:1;fill:#005d99;fill-opacity:1;stroke:none;stroke-width:38.97637939;stroke-linecap:square;stroke-miterlimit:4;stroke-dasharray:none;stroke-dashoffset:0;stroke-opacity:1"
       id="rect3587"
       width="520.39996"
       height="86"
       x="64.085716"
       y="336.50504" />
    <path
       id="path3570"
       d="m 96.685694,407.80504 c 2.9,-1 5.099996,-2.3 6.499996,-3.9 1.5,-1.6 2.4,-3.4 3,-5.4 0.5,-2 0.8,-4.2 0.8,-6.7 l 0,-2.7 c 0,-5.1 -0.4,-8.8 -1.1,-11.2 -0.7,-2.5 -2,-4.2 -3.8,-5.1 -1.7,-0.9 -4.499996,-1.4 -8.299996,-1.7 l 0,-0.6 c 3.3,-0.4 5.8,-1.3 7.899996,-2.5 2.1,-1.3 3.4,-2.9 4.2,-4.7 0.8,-1.9 1.2,-4.3 1.2,-6.9 l 0,-4.9 c 0,-3.6 -0.6,-6.5 -1.8,-8.6 -1.1,-2.2 -3.4,-3.8 -6.499996,-4.8 -3.2,-1.1 -7.7,-1.6 -13.6,-1.6 l -21.1,0 0,72.7 21.4,0 c 4.6,0 8.3,-0.5 11.2,-1.4 z m -15.6,-61.2 3.4,0 c 1.3,0 2.6,0.4 3.8,1.3 1.1,0.9 1.7,2 1.7,3.4 l 0,9.6 c 0,1.5 -0.6,2.7 -1.7,3.7 -1.1,1 -2.6,1.4 -4.3,1.4 l -2.9,0 0,-19.4 z m 0,52.1 0,-22.2 4.3,0 c 1.3,0 2.4,0.5 3.3,1.5 0.9,0.9 1.4,2 1.4,3.4 l -0.1,11.8 c 0,1.4 -0.5,2.8 -1.6,3.8 -1,1.1 -2.2,1.7 -3.7,1.7 l -3.6,0 z m 53.100006,4.1 0.4,6.4 16,0 c 0,-0.1 -0.1,-0.7 -0.2,-1.8 -0.2,-1.2 -0.3,-2 -0.3,-2.6 l 0,-40.4 c 0,-2.1 -0.4,-4.1 -1.1,-5.8 -0.7,-1.8 -1.7,-3.4 -3.3,-4.7 -1.5,-1.3 -3.5,-2.4 -5.8,-3.1 -2.3,-0.7 -5.1,-1.1 -8.4,-1.1 -7,0 -12.1,1.3 -15.4,4 -3.4,2.8 -5,6.2 -5,10.7 l 0,7.3 16.1,0 0,-6.4 c 0,-1.2 0.3,-2.3 1,-3.3 0.6,-1 1.5,-1.5 2.5,-1.5 2.1,0 3.3,1.5 3.3,4.5 0,1.8 -0.1,2.7 -0.4,3.3 -0.2,0.5 -0.7,1 -1.3,1.7 -1.1,1 -2.4,1.9 -3.7,2.8 -1.3,0.8 -3.8,2.1 -7,4 -3.4,1.8 -5.6,3.1 -6.6,4 -1.4,1.5 -2.5,3.3 -3,5.2 -0.5,1.8 -0.8,4.4 -0.8,7.7 0.1,4.2 0.3,7.5 0.7,9.6 0.3,2 1.6,3.8 3.8,5.3 2,1.5 4.4,2.2 6.8,2.2 2.7,0 5.2,-0.7 7.5,-2.1 2.1,-1.4 3.3,-3.4 3.8,-5.6 l 0.4,0 z m -3.6,-5.1 c -1.2,0 -2,-0.4 -2.6,-1.2 -0.4,-0.8 -0.7,-1.6 -0.7,-2.5 l 0,-6.1 c 0,-1.4 0.6,-2.7 1.7,-3.7 0.3,-0.4 2,-1.8 5,-4.3 l 0,14.8 c 0,0.5 -0.3,1.2 -0.8,1.9 -0.5,0.8 -1.4,1.1 -2.6,1.1 z m 39.8,-61.2 -16.1,0 0,72.7 16.1,0 0,-72.7 z m 6.9,72.7 16.1,0 0,-47.5 4.8,0 0,-10.6 -4.8,0 0,-2.1 c 0,-1.5 1.6,-2.4 4.9,-2.4 l 0,-10.1 -9.9,0 c -2.4,0 -4.5,0.5 -6.2,1.5 -1.6,0.9 -2.9,2.5 -3.8,4.7 -0.8,2.1 -1.2,4.9 -1.2,8.4 l -3.3,0 0,10.6 3.4,0 0,47.5 z m 60.6,-7.3 c 1.2,-2.7 1.8,-6 1.8,-9.8 l 0,-23.9 c 0,-6.2 -1.5,-10.9 -4.7,-14 -3.1,-3.1 -8.1,-4.6 -14.9,-4.6 -4.8,0 -8.5,0.7 -11.4,2.3 -3,1.4 -5,3.6 -6.2,6.3 -1.3,2.8 -1.9,6.1 -1.9,10 l 0,23.9 c 0,4 0.6,7.2 1.9,10 1.3,2.8 3.4,4.8 6.3,6.3 3,1.4 6.7,2.1 11.4,2.1 4.7,0 8.6,-0.7 11.4,-2.2 2.9,-1.5 5,-3.6 6.3,-6.4 z m -14.3,-6.2 c 0,2.8 -1.2,4.2 -3.6,4.2 -1,0 -1.9,-0.4 -2.4,-1.2 -0.6,-0.8 -0.9,-1.7 -0.9,-3 l 0,-31.4 c 0,-1.4 0.3,-2.4 0.9,-3.3 0.6,-0.7 1.4,-1.1 2.5,-1.1 1.1,0 2.1,0.4 2.7,1.2 0.5,0.7 0.8,1.8 0.8,3.2 l 0,31.4 z m 59.1,13.5 0,-58.1 -16.1,0 0,43.4 c 0,0.8 -0.3,1.4 -1,2 -0.6,0.6 -1.5,0.9 -2.5,0.9 -1.1,0 -1.9,-0.4 -2.4,-1.2 -0.5,-0.7 -0.9,-1.5 -0.9,-2.5 l 0,-42.6 -16.1,0 0,47.8 c 0,2.3 0.4,4.5 1.3,6.2 0.9,1.8 2.1,3.2 3.6,4.1 1.5,0.9 3.4,1.4 5.4,1.4 3,0 5.6,-0.8 7.8,-2.3 2.4,-1.6 4,-3.6 5.1,-5.7 l 0,6.7 15.8,0 z m 26.9,-42.8 0,15.9 16.1,0 0,-21.2 c 0,-3.2 -1,-6 -3,-8.1 -1.9,-2.1 -4.5,-3.1 -7.5,-3.1 -5.7,0 -9.9,2.8 -12.7,8.4 l 0,-7 -15.7,0 0,58 16.1,0 0,-42.9 c 0,-1 0.4,-1.7 1.2,-2.4 0.7,-0.6 1.5,-0.9 2.3,-0.9 0.9,0 1.6,0.3 2.2,0.9 0.7,0.7 1,1.5 1,2.4 z m 78.7,-28.4 c -3.2,-1 -7.7,-1.5 -13.6,-1.5 l -21.1,0 0,72.7 21.5,0 c 4.6,0 8.2,-0.5 11.2,-1.4 2.9,-1 5.1,-2.3 6.5,-3.9 1.5,-1.6 2.4,-3.4 2.9,-5.4 0.5,-2 0.8,-4.2 0.8,-6.7 l 0,-2.7 c 0,-5.1 -0.4,-8.8 -1.1,-11.2 -0.7,-2.5 -2,-4.2 -3.8,-5.1 -1.7,-0.9 -4.5,-1.4 -8.2,-1.7 l 0,-0.6 c 3.2,-0.4 5.8,-1.3 7.8,-2.5 2,-1.3 3.4,-2.9 4.2,-4.7 0.8,-1.9 1.2,-4.3 1.2,-6.9 l 0,-4.9 c 0,-3.6 -0.6,-6.5 -1.8,-8.6 -1.1,-2.2 -3.3,-3.8 -6.5,-4.9 z m -17.6,8.6 3.4,0 c 1.3,0 2.6,0.4 3.8,1.3 1.1,0.9 1.7,2 1.7,3.4 l 0,9.6 c 0,1.5 -0.6,2.7 -1.7,3.7 -1.1,1 -2.6,1.4 -4.3,1.4 l -2.8,0 0,-19.4 z m 8.9,46.7 c 0,1.4 -0.5,2.8 -1.7,3.8 -1,1.1 -2.2,1.7 -3.7,1.7 l -3.6,0 0,-22.3 4.3,0 c 1.3,0 2.3,0.5 3.3,1.5 0.9,0.9 1.4,2 1.4,3.4 l 0,11.9 z m 55.2,-39.4 c -3.2,-2.9 -8.2,-4.3 -15.1,-4.3 -4.6,0 -8.2,0.7 -11.1,2.3 -2.8,1.4 -4.9,3.5 -6.1,6.2 -1.4,2.6 -1.9,5.9 -1.9,9.7 l 0,24.6 c 0,12.1 6.5,18.2 19.5,18.2 3.4,0 6.3,-0.4 8.9,-1.2 2.4,-0.9 4.5,-2 6.1,-3.5 1.5,-1.5 2.8,-3.2 3.5,-5.2 0.7,-1.9 1.1,-3.9 1.1,-5.9 l 0,-8.2 -16.1,0 0,9.6 c 0,1 -0.3,1.9 -0.9,2.7 -0.6,0.7 -1.5,1 -2.5,1 -0.9,0 -1.7,-0.4 -2.4,-1.1 -0.7,-0.8 -1,-1.6 -1,-2.5 l 0,-14.6 22.9,0 0,-16.7 c -0.1,-4.5 -1.8,-8.2 -4.9,-11.1 z m -11.3,18 -6.8,0 0,-6.9 c 0,-3.4 1.1,-5 3.4,-5 1,0 1.9,0.4 2.5,1.1 0.6,0.8 0.9,1.6 0.9,2.5 l 0,8.3 z m 59,33 0,-40.5 c 0,-2.1 -0.4,-4.1 -1.1,-5.8 -0.7,-1.8 -1.8,-3.4 -3.3,-4.7 -1.5,-1.3 -3.5,-2.4 -5.8,-3.1 -2.4,-0.7 -5.1,-1.1 -8.4,-1.1 -6.9,0 -12.1,1.3 -15.4,4 -3.4,2.8 -5,6.2 -5,10.7 l 0,7.3 16.1,0 0,-6.4 c 0,-1.2 0.3,-2.3 1,-3.3 0.6,-1 1.6,-1.5 2.5,-1.5 2.2,0 3.3,1.5 3.3,4.5 0,1.8 -0.1,2.7 -0.4,3.3 -0.2,0.5 -0.7,1 -1.3,1.7 -1.1,1 -2.3,1.9 -3.8,2.8 -1.3,0.8 -3.8,2.1 -7,4 -3.4,1.8 -5.6,3.1 -6.6,4 -1.4,1.5 -2.4,3.3 -3,5.2 -0.5,1.8 -0.8,4.4 -0.8,7.7 0.1,4.2 0.3,7.5 0.7,9.6 0.3,2 1.7,3.8 3.8,5.3 2,1.5 4.4,2.2 6.8,2.2 2.8,0 5.2,-0.7 7.5,-2.1 2.1,-1.4 3.4,-3.4 3.8,-5.6 l 0.5,0 0.4,6.4 16,0 c 0,-0.1 -0.1,-0.7 -0.2,-1.8 -0.2,-1.4 -0.3,-2.3 -0.3,-2.8 z m -16.1,-10.2 c 0,0.5 -0.3,1.2 -0.8,1.9 -0.5,0.8 -1.4,1.1 -2.6,1.1 -1.3,0 -2.1,-0.4 -2.6,-1.2 -0.4,-0.8 -0.7,-1.6 -0.7,-2.5 l 0,-6.1 c 0,-1.4 0.6,-2.7 1.7,-3.7 0.3,-0.4 2,-1.8 5,-4.3 l 0,14.8 z m 69.3,-54.3 -16.1,0 0,10.7 -12.8,0 0,-10.7 -16.1,0 0,10.7 -5.4,0 0,10.6 5.4,0 0,36.5 c 0,3.4 1,6 3,8 2,2 4.7,3 8,3 l 12.2,0 0,-10 -3.1,0 c -2.7,0 -4,-0.9 -4,-2.7 l 0,-34.8 12.8,0 0,36.5 c 0,3.4 1,6.1 3,8 2.1,2 4.7,3 7.9,3 l 12.2,0 0,-10 -3.1,0 c -2.8,0 -4.1,-0.9 -4.1,-2.7 l 0,-34.8 7.1,0 0,-10.6 -7.1,0 0,-10.7 z m 35.1,10.7 c -0.2,1.5 -0.5,3.1 -1,4.9 -0.3,1.7 -0.6,3.6 -1,5.4 -0.3,1.9 -0.5,3.7 -0.8,5.5 -0.2,1.8 -0.3,3.6 -0.6,5.2 -1,6.9 -1.8,13.8 -2,20.6 l -0.4,0 c -0.2,-5.8 -0.9,-12.4 -2.1,-20.1 -0.2,-1.6 -0.3,-3 -0.6,-4.6 -0.2,-1.4 -0.4,-3.2 -0.7,-5.1 -0.3,-1.8 -0.6,-3.9 -1,-6.1 -0.1,-0.8 -0.2,-1.6 -0.3,-2 -0.1,-0.6 -0.2,-1.1 -0.3,-1.7 -0.1,-0.5 -0.1,-0.9 -0.2,-1.2 0,-0.3 -0.1,-0.5 -0.1,-0.7 l -16.1,0 c 4.5,20.8 7.3,34.4 8.9,41 2.5,10.9 3.8,16.8 3.8,17.9 0,0.7 -0.2,1.3 -0.7,1.6 -0.5,0.4 -0.9,0.6 -1.3,0.6 l -9.2,0 0,10.2 15.7,0 c 1.4,0 2.8,-0.3 4.1,-0.9 1.3,-0.6 2.4,-1.2 3,-2.1 1.4,-1.4 2.5,-3.7 3.3,-6.7 0.8,-3 1.9,-7.8 3.3,-14.2 4.5,-22.2 7.9,-38 10,-47.6 l -13.7,0 z"
       inkscape:connector-curvature="0"
       style="fill:#ffffff" />
  </g>
</svg>
